<?xml version="1.0" encoding="UTF-8" standalone="no"?>
<svg
   xmlns:dc="http://purl.org/dc/elements/1.1/"
   xmlns:cc="http://creativecommons.org/ns#"
   xmlns:rdf="http://www.w3.org/1999/02/22-rdf-syntax-ns#"
   xmlns:svg="http://www.w3.org/2000/svg"
   xmlns="http://www.w3.org/2000/svg"
   xmlns:sodipodi="http://sodipodi.sourceforge.net/DTD/sodipodi-0.dtd"
   xmlns:inkscape="http://www.inkscape.org/namespaces/inkscape"
   version="1.1"
   id="svg2"
   xml:space="preserve"
   width="637.20209"
   height="355.68622"
   viewBox="0 0 637.20209 355.68622"
   sodipodi:docname="workflow_6.svg"
   inkscape:version="1.0.2 (1.0.2+r75+1)"><sodipodi:namedview
     pagecolor="#ffffff"
     bordercolor="#666666"
     borderopacity="1"
     objecttolerance="10"
     gridtolerance="10"
     guidetolerance="10"
     inkscape:pageopacity="0"
     inkscape:pageshadow="2"
     inkscape:window-width="1920"
     inkscape:window-height="1025"
     id="namedview287"
     showgrid="false"
     inkscape:zoom="1.2201766"
     inkscape:cx="318.60104"
     inkscape:cy="177.84311"
     inkscape:window-x="0"
     inkscape:window-y="27"
     inkscape:window-maximized="1"
     inkscape:current-layer="svg2"
     inkscape:document-rotation="0" /><metadata
     id="metadata8"><rdf:RDF><cc:Work
         rdf:about=""><dc:format>image/svg+xml</dc:format><dc:type
           rdf:resource="http://purl.org/dc/dcmitype/StillImage" /><dc:title /></cc:Work></rdf:RDF></metadata><defs
     id="defs6"><clipPath
       clipPathUnits="userSpaceOnUse"
       id="clipPath108"><path
         d="m 59.14286,72 h 493.7143 V 720 H 59.14286 Z"
         id="path106" /></clipPath></defs><g
     id="g10"
     transform="matrix(1.3333333,0,0,-1.3333333,-83.156215,946.82819)"><g
       id="g12" /><g
       id="g14"><g
         id="g16"
         transform="matrix(0.6887755,0,0,0.6887755,72,720)" /><g
         id="g18"
         transform="matrix(0.6887755,0,0,0.6887755,72,720)"><text
           transform="matrix(1,0,0,-1,279.4267,-37.73943)"
           style="font-variant:normal;font-weight:normal;font-size:21px;writing-mode:lr-tb;fill:#000000;fill-opacity:0;fill-rule:nonzero;stroke:none"
           id="text22"><tspan
             x="0 13.4841 26.422199 40.851299 55.721401 60.637501 74.079597"
             y="0"
             id="tspan20">ARCHIVE</tspan></text></g><g
         id="g24"
         transform="matrix(0.6887755,0,0,0.6887755,72,720)"><text
           transform="matrix(1,0,0,-1,278.0503,-87.70105)"
           style="font-variant:normal;font-weight:normal;font-size:37px;writing-mode:lr-tb;fill:#000000;fill-opacity:0;fill-rule:nonzero;stroke:none"
           id="text28"><tspan
             x="0 10.8595 30.191999 60.2915 80.290001 91.260498"
             y="0"
             id="tspan26">remote</tspan></text></g><g
         id="g30"
         transform="matrix(0.6887755,0,0,0.6887755,72,720)"><text
           transform="matrix(1,0,0,-1,182.3115,-133.3239)"
           style="font-variant:normal;font-weight:normal;font-size:12px;font-family:Helvetica;-inkscape-font-specification:Helvetica;writing-mode:lr-tb;fill:#000000;fill-opacity:0;fill-rule:nonzero;stroke:none"
           id="text34"><tspan
             x="0 6.6743999"
             y="0"
             id="tspan32">of</tspan></text></g><g
         id="g36"
         transform="matrix(0.6887755,0,0,0.6887755,72,720)"><text
           transform="matrix(1,0,0,-1,391.2353,-167.6317)"
           style="font-variant:normal;font-weight:normal;font-size:88px;writing-mode:lr-tb;fill:#000000;fill-opacity:0;fill-rule:nonzero;stroke:none"
           id="text40"><tspan
             x="0 42.715199 83.670403"
             y="0"
             id="tspan38">Jsa</tspan></text></g><g
         id="g42"
         transform="matrix(0.6887755,0,0,0.6887755,72,720)"><text
           transform="matrix(1,0,0,-1,536.417,-107.7567)"
           style="font-variant:normal;font-weight:normal;font-size:16px;writing-mode:lr-tb;fill:#000000;fill-opacity:0;fill-rule:nonzero;stroke:none"
           id="text46"><tspan
             x="0"
             y="0"
             id="tspan44">e</tspan></text></g><g
         id="g48"
         transform="matrix(0.6887755,0,0,0.6887755,72,720)"><text
           transform="matrix(1,0,0,-1,549.5127,-166.6278)"
           style="font-variant:normal;font-weight:normal;font-size:20px;writing-mode:lr-tb;fill:#000000;fill-opacity:0;fill-rule:nonzero;stroke:none"
           id="text52"><tspan
             x="0 11.972 23.224001 40.056 52.028 66.82 79.192001 92.024002 103.996"
             y="0"
             id="tspan50">TEMPORARY</tspan></text></g><g
         id="g54"
         transform="matrix(0.6887755,0,0,0.6887755,72,720)"><text
           transform="matrix(1,0,0,-1,0.8156633,-194.33)"
           style="font-variant:normal;font-weight:normal;font-size:17px;writing-mode:lr-tb;fill:#000000;fill-opacity:0;fill-rule:nonzero;stroke:none"
           id="text58"><tspan
             x="0 10.3428 20.0396 34.462399 44.839199 57.528 68.2108 79.233597 89.576401"
             y="0"
             id="tspan56">TEMPORARY</tspan></text></g><g
         id="g60"
         transform="matrix(0.6887755,0,0,0.6887755,72,720)"><text
           transform="matrix(1,0,0,-1,412.5762,-185.8552)"
           style="font-variant:normal;font-weight:normal;font-size:12px;font-family:Helvetica;-inkscape-font-specification:Helvetica;writing-mode:lr-tb;fill:#000000;fill-opacity:0;fill-rule:nonzero;stroke:none"
           id="text64"><tspan
             x="0"
             y="0"
             id="tspan62">i</tspan></text></g><g
         id="g66"
         transform="matrix(0.6887755,0,0,0.6887755,72,720)"><text
           transform="matrix(1,0,0,-1,54.94164,-325.0604)"
           style="font-variant:normal;font-weight:normal;font-size:21px;writing-mode:lr-tb;fill:#000000;fill-opacity:0;fill-rule:nonzero;stroke:none"
           id="text70"><tspan
             x="0 17.1234"
             y="0"
             id="tspan68">my</tspan></text></g><g
         id="g72"
         transform="matrix(0.6887755,0,0,0.6887755,72,720)"><text
           transform="matrix(1,0,0,-1,294.7778,-349.2899)"
           style="font-variant:normal;font-weight:normal;font-size:46px;writing-mode:lr-tb;fill:#000000;fill-opacity:0;fill-rule:nonzero;stroke:none"
           id="text76"><tspan
             x="0 24.596201"
             y="0"
             id="tspan74">ng</tspan></text></g><g
         id="g78"
         transform="matrix(0.6887755,0,0,0.6887755,72,720)"><text
           transform="matrix(1,0,0,-1,458.0381,-327.9364)"
           style="font-variant:normal;font-weight:normal;font-size:16px;writing-mode:lr-tb;fill:#000000;fill-opacity:0;fill-rule:nonzero;stroke:none"
           id="text82"><tspan
             x="0"
             y="0"
             id="tspan80">n</tspan></text></g><g
         id="g84"
         transform="matrix(0.6887755,0,0,0.6887755,72,720)"><text
           transform="matrix(1,0,0,-1,-6.834483,-363.497)"
           style="font-variant:normal;font-weight:normal;font-size:18px;writing-mode:lr-tb;fill:#000000;fill-opacity:0;fill-rule:nonzero;stroke:none"
           id="text88"><tspan
             x="0"
             y="0"
             id="tspan86">r</tspan></text></g><g
         id="g90"
         transform="matrix(0.6887755,0,0,0.6887755,72,720)"><text
           transform="matrix(1,0,0,-1,273.2239,-381.4061)"
           style="font-variant:normal;font-weight:normal;font-size:19px;writing-mode:lr-tb;fill:#000000;fill-opacity:0;fill-rule:nonzero;stroke:none"
           id="text94"><tspan
             x="0 12.293 24.167999 37.258999 50.844002 55.403999 67.678001"
             y="0"
             id="tspan92">ARCHIVE</tspan></text></g><g
         id="g96"
         transform="matrix(0.6887755,0,0,0.6887755,72,720)"><text
           transform="matrix(1,0,0,-1,-7.595225,-401.6454)"
           style="font-variant:normal;font-weight:normal;font-size:26px;writing-mode:lr-tb;fill:#000000;fill-opacity:0;fill-rule:nonzero;stroke:none"
           id="text100"><tspan
             x="0"
             y="0"
             id="tspan98">I</tspan></text></g></g><g
       id="g102"><g
         id="g104"
         clip-path="url(#clipPath108)"><path
           d="m 132.7072,571.1835 c -0.006,-0.2662 -0.2265,-0.4773 -0.4927,-0.4714 -0.2662,0.006 -0.4772,0.2264 -0.4714,0.4926 0.0192,0.8704 -0.0149,2.2657 -0.0674,3.4238 -0.0229,0.5072 -0.0365,0.9378 -0.0707,1.1718 -0.01,0.0665 -0.0188,0.0999 -0.0209,0.1052 -0.003,0.008 0.0926,-0.1294 0.0513,-0.0809 -0.023,0.0269 0.1674,-0.1234 0.1126,-0.0923 -0.0576,0.0326 0.303,-0.0575 0.2204,-0.0576 -0.0822,-2e-4 0.2617,0.0809 0.2092,0.0526 -0.0495,-0.0268 0.1217,0.0982 0.1011,0.0765 -0.0364,-0.0383 0.0417,0.0552 0.0414,0.0546 -0.005,-0.0113 -0.0306,-0.0772 -0.0572,-0.1812 -0.1414,-0.5528 -0.2672,-1.4652 -0.3717,-2.4932 -0.0782,-0.7699 -0.1111,-1.5973 -0.1181,-2.4007 -0.0125,-1.4475 0.1969,-2.7282 0.5875,-3.6823 0.3698,-0.9034 0.895,-1.4597 1.446,-1.6012 0.2579,-0.0662 0.4133,-0.329 0.3471,-0.5869 -0.0663,-0.2579 -0.3291,-0.4133 -0.587,-0.3471 -0.953,0.2448 -1.6581,1.0939 -2.0985,2.1699 -0.455,1.1116 -0.6727,2.5077 -0.6593,4.056 0.007,0.8249 0.0406,1.6792 0.123,2.4898 0.1067,1.0508 0.2303,1.9837 0.3967,2.6346 0.0362,0.1414 0.0717,0.2571 0.1263,0.368 0.0279,0.0566 0.0608,0.1166 0.1247,0.1839 0.0689,0.0725 0.1993,0.1706 0.3872,0.171 0.1895,3e-4 0.3334,-0.1079 0.4026,-0.189 0.0639,-0.075 0.0913,-0.1383 0.1131,-0.1942 0.042,-0.1076 0.0606,-0.2067 0.0766,-0.3159 0.0491,-0.3354 0.0572,-0.7671 0.0799,-1.2678 0.0532,-1.1754 0.0884,-2.5746 0.0682,-3.4886"
           style="fill:#000000;fill-opacity:1;fill-rule:nonzero;stroke:none"
           id="path110" /><path
           d="m 135.0626,568.745 c 0.21,0.1637 0.513,0.1262 0.6767,-0.0838 0.1638,-0.21 0.1262,-0.5129 -0.0838,-0.6767 -0.0262,-0.0205 0.1197,0.2115 0.0952,0.1397 -0.025,-0.0732 -0.0111,0.2524 0.004,0.203 0.0139,-0.0443 -0.0334,0.0664 -0.0313,0.0639 5e-4,-5e-4 0.0125,-0.0132 0.036,-0.0305 0.1133,-0.0835 0.3852,-0.2018 0.7409,-0.267 0.5637,-0.1034 1.3627,-0.002 1.9559,0.2018 0.3164,0.109 0.5307,0.3109 0.5976,0.4368 0.004,0.009 0.006,-0.0378 -0.0168,0.002 -0.0294,0.051 -0.1155,0.1371 -0.2502,0.2025 -0.2172,0.1054 -0.7244,0.1137 -1.2071,0.0772 -0.2805,-0.0212 -0.5226,-0.0783 -0.6878,-0.1524 -0.1512,-0.0679 -0.2046,-0.139 -0.2091,-0.1502 -10e-4,-0.004 -0.0215,-0.0239 0.0667,-0.1542 0.1047,-0.1548 0.3432,-0.3781 0.7351,-0.6258 0.2251,-0.1423 0.2922,-0.4401 0.15,-0.6652 -0.1423,-0.2251 -0.4401,-0.2922 -0.6652,-0.1499 -0.4635,0.2929 -0.8025,0.5812 -1.0186,0.9005 -0.2116,0.3129 -0.298,0.7132 -0.1643,1.0502 0.1316,0.3317 0.413,0.5408 0.7106,0.6743 0.2997,0.1345 0.6425,0.2064 1.01,0.2342 0.5204,0.0393 1.1433,0.0993 1.7008,-0.1712 0.2778,-0.1349 0.5147,-0.3287 0.6645,-0.5884 0.1514,-0.2627 0.1941,-0.6323 0.0329,-0.9357 -0.2112,-0.3972 -0.6139,-0.7165 -1.1352,-0.896 -0.7405,-0.255 -1.6435,-0.3853 -2.4437,-0.2386 -0.4656,0.0854 -0.8512,0.2272 -1.139,0.4392 -0.143,0.1054 -0.2835,0.2329 -0.3529,0.4548 -0.0364,0.1161 -0.0425,0.2627 0.003,0.3967 0.0455,0.1332 0.1335,0.2382 0.2245,0.3092"
           style="fill:#000000;fill-opacity:1;fill-rule:nonzero;stroke:none"
           id="path112" /><path
           d="m 147.1991,569.9496 c 0.2265,-0.1401 0.2966,-0.4372 0.1566,-0.6637 -0.14,-0.2265 -0.4371,-0.2966 -0.6636,-0.1566 -0.035,0.0217 -0.1401,0.0568 -0.2736,0.0509 -0.1399,-0.006 -0.3052,-0.0514 -0.4735,-0.1621 -0.4857,-0.3197 -0.9869,-1.3262 -1.0411,-2.148 -0.0255,-0.3865 0.0587,-0.6786 0.1738,-0.8023 0.054,-0.0579 0.1181,-0.0973 0.2306,-0.1181 0.1232,-0.0228 0.3078,-0.0161 0.5537,0.0509 0.2569,0.0701 0.5219,-0.0814 0.592,-0.3383 0.07,-0.2569 -0.0814,-0.522 -0.3383,-0.592 -0.3514,-0.0958 -0.6811,-0.1246 -0.9827,-0.0688 -0.2986,0.0552 -0.5683,0.2023 -0.7609,0.4092 -0.3802,0.4082 -0.4665,0.9753 -0.4304,1.5228 0.0731,1.1098 0.5886,2.3078 1.4732,2.8901 0.3134,0.2062 0.6503,0.3063 0.9612,0.32 0.3049,0.0134 0.5882,-0.0489 0.823,-0.194"
           style="fill:#000000;fill-opacity:1;fill-rule:nonzero;stroke:none"
           id="path114" /><path
           d="m 148.9874,568.1406 c 0.0478,0.262 0.2989,0.4356 0.5608,0.3879 0.262,-0.0477 0.4357,-0.2988 0.3879,-0.5608 -0.1056,-0.5793 -0.2725,-1.4084 -0.1563,-1.89 0.0317,-0.1314 0.1098,-0.2275 0.1948,-0.281 0.0811,-0.0509 0.1946,-0.0606 0.3226,0.0233 0.0406,0.0266 0.2014,0.3392 0.3557,0.6665 0.0657,0.1394 0.1087,0.2692 0.2105,0.4206 0.0557,0.0829 0.1465,0.2241 0.3842,0.2695 0.1238,0.0236 0.2594,-0.004 0.3528,-0.0529 0.0886,-0.0461 0.1442,-0.1016 0.1865,-0.151 0.4605,-0.5383 0.6665,-1.4488 1.0576,-2.2211 0.1889,-0.373 0.3967,-0.6768 0.5696,-0.8123 0.1475,-0.1156 0.1871,-0.1333 0.3691,-0.0266 0.2297,0.1347 0.5251,0.0576 0.6598,-0.1721 0.1347,-0.2297 0.0576,-0.5251 -0.1721,-0.6598 -0.4784,-0.2805 -1.0777,-0.1934 -1.4516,0.0996 -0.3694,0.2895 -0.6161,0.7033 -0.8351,1.1356 -0.4387,0.8662 -0.7711,1.844 -0.9301,2.0298 -0.0127,0.0149 0.1616,-0.109 0.1006,-0.0772 -0.0328,0.0171 0.1704,-0.0489 0.1222,-0.0408 -0.0489,0.008 0.2003,0.0109 0.1515,0.002 -0.0482,-0.009 0.1551,0.0617 0.1225,0.0438 -0.0464,-0.0254 0.1068,0.0861 0.0901,0.0685 -0.0149,-0.0156 0.0248,0.0307 0.0229,0.0277 -0.003,-0.004 -0.0624,-0.132 -0.1388,-0.2941 -0.1251,-0.2654 -0.2281,-0.7527 -0.699,-1.0616 -0.4184,-0.2745 -0.962,-0.2866 -1.3649,-0.0332 -0.2931,0.1844 -0.5273,0.4919 -0.6188,0.8711 -0.2005,0.831 0.0437,1.7327 0.145,2.289"
           style="fill:#000000;fill-opacity:1;fill-rule:nonzero;stroke:none"
           id="path116" /><path
           d="m 154.8946,575.2161 c 0.1939,0.1824 0.4991,0.1731 0.6815,-0.0209 0.1824,-0.194 0.1731,-0.4991 -0.0209,-0.6815 -0.0271,-0.0255 0.0232,0.0304 0.0131,0.007 -0.0124,-0.0291 -0.0294,-0.0836 -0.0434,-0.1601 -0.0307,-0.1665 -0.0454,-0.4171 -0.0294,-0.7424 0.0595,-1.2082 0.5156,-3.1334 1.1856,-5.1956 0.6803,-2.0935 1.5472,-4.2216 2.4795,-5.8366 0.1331,-0.2306 0.0541,-0.5254 -0.1765,-0.6586 -0.2306,-0.1331 -0.5255,-0.0541 -0.6586,0.1766 -0.9834,1.7035 -1.8654,3.8784 -2.5614,6.0207 -0.6861,2.1113 -1.164,4.07 -1.2317,5.4461 -0.0187,0.3795 -0.005,0.6971 0.0441,0.9644 0.0477,0.259 0.1161,0.4912 0.3181,0.6812"
           style="fill:#000000;fill-opacity:1;fill-rule:nonzero;stroke:none"
           id="path118" /><path
           d="m 281.1851,677.5535 c 0.1606,-0.2124 0.1186,-0.5147 -0.0938,-0.6754 -0.2124,-0.1606 -0.5147,-0.1186 -0.6753,0.0938 -0.0306,0.0404 -0.0546,0.0663 -0.0662,0.0772 -0.008,0.008 0.0696,-0.0329 0.0335,-0.0172 -0.0203,0.009 0.1229,-0.028 0.0861,-0.0232 -0.058,0.007 0.256,0.0548 0.1942,0.028 -0.0603,-0.0262 0.1493,0.1191 0.1255,0.0912 -0.0281,-0.033 0.0322,0.049 0.0313,0.0468 -0.0103,-0.0273 -0.0369,-0.1757 -0.0409,-0.3731 -0.0116,-0.5794 0.0963,-1.4422 0.2521,-2.1974 0.0924,-0.4479 0.2303,-0.8396 0.3364,-1.1394 0.0558,-0.1575 0.0978,-0.265 0.1147,-0.3054 0.003,-0.007 -0.0135,0.0268 -0.003,0.006 9e-4,-0.002 -0.0146,0.0272 -0.0101,0.019 0.1296,-0.2326 0.0459,-0.5262 -0.1867,-0.6557 -0.2327,-0.1296 -0.5263,-0.046 -0.6558,0.1867 -0.005,0.009 -0.008,0.0144 -0.0101,0.019 -0.0146,0.0296 -0.0176,0.0381 -0.0241,0.0538 -0.0274,0.0656 -0.0729,0.183 -0.1335,0.3543 -0.1079,0.3048 -0.264,0.7441 -0.3718,1.2664 -0.1674,0.8117 -0.2859,1.7083 -0.2718,2.4116 0.007,0.3359 -0.0203,0.6271 0.2396,0.9322 0.1466,0.1721 0.5017,0.2548 0.713,0.1629 0.1965,-0.0855 0.3062,-0.2159 0.4171,-0.3626 m 0.3291,-4.4783 c 0.0688,-0.2573 -0.084,-0.5216 -0.3412,-0.5904 -0.2573,-0.0688 -0.5216,0.084 -0.5904,0.3412 -0.007,0.0249 0.0109,-0.0349 0.01,-0.0316 -0.003,0.009 -0.009,0.0225 -0.0264,0.0654 -0.0951,0.2301 -0.4613,0.8022 -0.6668,1.5402 -0.1561,0.5605 -0.2085,1.2013 -0.1023,1.8811 0.2288,1.4647 1.2103,2.8715 2.3723,3.78 0.5703,0.4459 1.1904,0.7705 1.8285,0.8452 0.6353,0.0743 1.32,-0.1724 1.7359,-0.7458 0.1563,-0.2155 0.1083,-0.517 -0.1072,-0.6733 -0.2155,-0.1564 -0.517,-0.1084 -0.6734,0.1071 -0.2219,0.3059 -0.4819,0.3965 -0.8432,0.3542 -0.3881,-0.0454 -0.8736,-0.2773 -1.3467,-0.6471 -0.9804,-0.7665 -1.836,-2.033 -2.0135,-3.1691 -0.0844,-0.5408 -0.0421,-1.0402 0.0785,-1.4736 0.1616,-0.5801 0.4676,-1.0401 0.629,-1.4303 0.0207,-0.0502 0.0327,-0.079 0.0448,-0.1134 0.002,-0.007 0.005,-0.0131 0.0124,-0.0398"
           style="fill:#000000;fill-opacity:1;fill-rule:nonzero;stroke:none"
           id="path120" /><path
           d="m 284.2927,673.9179 c -0.1911,-0.1854 -0.4963,-0.1808 -0.6817,0.0103 -0.1854,0.1912 -0.1808,0.4964 0.0103,0.6818 0.3274,0.3177 0.8691,0.5817 1.5191,0.9539 0.6663,0.3816 1.3851,0.8022 1.9189,1.2159 0.3447,0.267 0.5768,0.536 0.6519,0.6921 0.004,0.007 0.0201,-0.0817 0.0108,-0.0671 -0.004,0.007 -0.0224,0.0244 -0.0877,0.0423 -0.1717,0.0469 -0.3622,0.0662 -0.5467,0.02 -0.3261,-0.0818 -0.8772,-0.7393 -1.1764,-1.4852 -0.135,-0.3365 -0.1754,-0.7435 -0.1544,-1.1388 0.0337,-0.6302 0.4646,-1.222 1.0936,-1.6072 0.6366,-0.3897 1.4411,-0.5468 2.1088,-0.3744 0.2578,0.0666 0.5208,-0.0884 0.5874,-0.3462 0.0666,-0.2579 -0.0884,-0.5209 -0.3462,-0.5874 -0.9667,-0.2497 -2.0141,-0.0283 -2.8535,0.4857 -0.8372,0.5126 -1.4988,1.3631 -1.553,2.3781 -0.0264,0.4956 0.017,1.0374 0.2223,1.5493 0.3626,0.9037 0.9277,1.8335 1.837,2.0614 0.39,0.0978 0.7523,0.0522 1.0354,-0.0252 0.2557,-0.0699 0.4943,-0.2157 0.6461,-0.4533 0.1546,-0.2421 0.1796,-0.5914 0.0454,-0.8703 -0.1816,-0.3772 -0.51,-0.7105 -0.9301,-1.036 -1.2304,-0.9534 -3.0491,-1.8008 -3.3573,-2.0997"
           style="fill:#000000;fill-opacity:1;fill-rule:nonzero;stroke:none"
           id="path122" /><path
           d="m 289.6341,676.1318 c -0.216,0.1557 -0.2649,0.457 -0.1092,0.673 0.1557,0.216 0.457,0.2649 0.673,0.1092 0.3069,-0.2211 0.1993,-0.2864 0.2153,-0.3512 0.0156,-0.0638 0.0279,-0.1299 0.0409,-0.2053 0.027,-0.1561 0.0551,-0.3467 0.0884,-0.5565 0.0683,-0.4299 0.1532,-0.9108 0.2611,-1.2401 0.0275,-0.0838 0.0521,-0.1468 0.069,-0.1801 0.0137,-0.027 -0.0513,0.0333 -0.0178,0.008 0.0353,-0.0267 0.0245,-0.0237 0.0391,-0.0279 0.0212,-0.006 -0.1376,-0.0195 -0.1074,-0.007 0.0318,0.0132 -0.0644,-0.0407 -0.0571,-0.0341 0.0101,0.009 0.0416,0.0566 0.0912,0.1671 0.0712,0.159 0.1434,0.3755 0.2259,0.5958 0.1866,0.4982 0.3105,1.0939 0.433,1.6416 0.0596,0.2664 0.0849,0.5405 0.1811,0.816 0.0751,0.2155 0.2123,0.4273 0.4607,0.5356 0.1273,0.0555 0.2822,0.0731 0.4246,0.0412 0.1415,-0.0318 0.2628,-0.1065 0.3557,-0.1957 0.4587,-0.4402 0.4194,-0.9987 0.5959,-1.4392 0.2382,-0.5944 0.7432,-1.1588 1.2123,-1.4823 0.2095,-0.1444 0.4822,-0.1746 0.7275,-0.1354 0.123,0.0196 0.2868,0.158 0.431,0.4513 0.1527,0.3107 0.2537,0.7252 0.2958,1.1126 0.0386,0.3547 0.0371,0.6742 0.004,0.8735 -0.006,0.0389 -0.0167,0.0661 -0.0228,0.0786 -0.005,0.009 0.0538,-0.0482 0.0245,-0.0235 -0.0169,0.0142 0.1294,-0.0664 0.0865,-0.0499 -0.0458,0.0176 0.2607,-0.0117 0.186,-0.0214 -0.0766,-0.01 0.2618,0.1374 0.2081,0.0917 -0.0515,-0.0438 0.1086,0.1552 0.0939,0.1225 -0.007,-0.0159 -0.0153,-0.2628 0.0356,-0.5628 0.0633,-0.3721 0.4002,-0.8773 0.8583,-1.245 0.4556,-0.3656 0.9911,-0.5606 1.3632,-0.4956 0.2623,0.0459 0.5121,-0.1295 0.558,-0.3918 0.0459,-0.2623 -0.1296,-0.5122 -0.3919,-0.558 -0.7682,-0.1344 -1.5296,0.2091 -2.1329,0.6934 -0.6026,0.4836 -1.0845,1.1244 -1.2053,1.8354 -0.0619,0.3639 -0.1408,0.7277 0.0356,1.1199 0.0664,0.1477 0.2385,0.319 0.4543,0.3467 0.2094,0.027 0.3696,-0.0613 0.4724,-0.148 0.196,-0.1655 0.2858,-0.3837 0.3275,-0.633 0.0559,-0.3336 0.0492,-0.7195 0.004,-1.137 -0.0517,-0.4758 -0.1674,-0.9828 -0.389,-1.4337 -0.2213,-0.4501 -0.5884,-0.8893 -1.1442,-0.9781 -0.4285,-0.0684 -0.9627,-0.0265 -1.4271,0.2938 -0.6215,0.4285 -1.2323,1.0997 -1.56,1.9174 -0.2296,0.5731 -0.3421,1.0769 -0.3685,1.1022 -0.0118,0.0114 0.1556,-0.0618 0.101,-0.0495 -0.0569,0.0127 0.2186,0.0362 0.1718,0.0158 -0.0436,-0.019 0.0796,0.0605 0.0723,0.0512 -0.005,-0.006 -9e-4,-2e-4 -0.008,-0.0205 -0.0417,-0.1192 -0.0796,-0.3917 -0.1505,-0.7088 -0.1211,-0.5414 -0.2488,-1.1759 -0.471,-1.7694 -0.0748,-0.1995 -0.1497,-0.4302 -0.2492,-0.6521 -0.1001,-0.2232 -0.2026,-0.4879 -0.5455,-0.6296 -0.3459,-0.143 -0.6947,0.0155 -0.8819,0.1571 -0.2533,0.1916 -0.3162,0.4287 -0.3857,0.641 -0.1424,0.4345 -0.2266,0.9451 -0.2971,1.3891 -0.0341,0.2147 -0.0624,0.4049 -0.0863,0.5435 -0.0112,0.0647 -0.0213,0.1153 -0.0271,0.1393 -0.002,0.01 0.009,-0.0213 0.002,-0.005 -0.004,0.0101 0.0413,-0.0808 0.0256,-0.0534 -0.009,0.0149 0.0568,-0.0792 0.0384,-0.0563 -0.0195,0.0243 0.1351,-0.1181 0.0909,-0.0862"
           style="fill:#000000;fill-opacity:1;fill-rule:nonzero;stroke:none"
           id="path124" /><path
           d="m 300.5397,677.9361 c 0.2379,0.1198 0.5278,0.0242 0.6476,-0.2136 0.1198,-0.2378 0.0241,-0.5277 -0.2137,-0.6475 -0.0322,-0.0163 -0.3029,-0.3528 -0.4253,-0.7633 -0.0484,-0.1622 -0.0523,-0.3617 -0.0124,-0.5557 0.0345,-0.1676 0.2373,-0.4011 0.5676,-0.5902 0.3412,-0.1952 0.7636,-0.3281 1.1028,-0.3731 0.2961,-0.0392 0.4878,0.0573 0.4954,0.0654 0.0442,0.0474 -0.0572,-0.147 -0.0566,-0.1247 4e-4,0.0172 10e-4,-0.0136 -2e-4,-0.0113 -0.0204,0.0412 0.0586,-0.0744 0.0511,-0.0683 -0.004,0.003 -0.006,0.004 -0.0284,0.0149 -0.0529,0.0249 -0.1502,0.0567 -0.2696,0.0874 -0.2517,0.0648 -0.5708,0.1198 -0.882,0.2278 -0.1569,0.0544 -0.3156,0.1221 -0.4649,0.237 -0.1534,0.1181 -0.3022,0.3095 -0.3417,0.5474 -0.0396,0.2379 0.0302,0.4712 0.144,0.6734 0.1154,0.2049 0.2824,0.4016 0.5023,0.6142 0.1914,0.1851 0.4967,0.1799 0.6818,-0.0115 0.1851,-0.1914 0.1799,-0.4966 -0.0115,-0.6817 -0.1757,-0.17 -0.2832,-0.3068 -0.3323,-0.3942 -0.0413,-0.0731 -0.0395,-0.004 -0.0331,-0.0421 0.007,-0.043 -0.0377,0.0712 -0.0213,0.0586 0.0248,-0.0191 0.0943,-0.0559 0.1929,-0.0902 0.2124,-0.0737 0.5112,-0.1289 0.8061,-0.2048 0.1478,-0.038 0.2948,-0.0804 0.4406,-0.1491 0.1486,-0.0701 0.3225,-0.1735 0.4302,-0.3909 0.0649,-0.1313 0.1038,-0.2776 0.1,-0.4393 -0.004,-0.1656 -0.061,-0.3588 -0.202,-0.5101 -0.3132,-0.336 -0.795,-0.4344 -1.3276,-0.3638 -0.4702,0.0624 -0.9879,0.2248 -1.4549,0.4921 -0.4677,0.2677 -0.915,0.658 -1.0332,1.2328 -0.0679,0.33 -0.069,0.6843 0.0328,1.0256 0.1806,0.6056 0.4337,1.1061 0.9155,1.3488"
           style="fill:#000000;fill-opacity:1;fill-rule:nonzero;stroke:none"
           id="path126" /><path
           d="m 305.4189,681.2771 c -0.1939,-0.1826 -0.499,-0.1734 -0.6815,0.0205 -0.1825,0.1939 -0.1733,0.499 0.0206,0.6816 0.0951,0.0896 0.2344,0.1677 0.3897,0.1849 0.1543,0.0171 0.2972,-0.0259 0.403,-0.083 0.2018,-0.109 0.3179,-0.2591 0.4331,-0.4203 0.2356,-0.3297 0.4534,-0.7624 0.7075,-1.25 0.5682,-1.0907 1.3875,-2.3553 1.9456,-3.5176 0.2706,-0.5637 0.4821,-1.0855 0.5197,-1.5887 0.0187,-0.2504 -0.009,-0.5149 -0.1461,-0.7523 -0.1388,-0.2406 -0.3911,-0.4151 -0.6625,-0.4883 -0.2571,-0.0694 -0.5217,0.0828 -0.5911,0.3399 -0.0694,0.257 0.0828,0.5217 0.3399,0.5911 0.0756,0.0204 0.073,0.0297 0.0785,0.0393 0.009,0.015 0.0287,0.077 0.0197,0.1985 -0.0207,0.2777 -0.1804,0.7285 -0.4274,1.2431 -0.5202,1.0834 -1.3347,2.3439 -1.9315,3.4895 -0.2534,0.4863 -0.4692,0.9003 -0.6369,1.1349 -0.0739,0.1035 -0.0771,0.1164 -0.1066,0.1323 -0.0235,0.0127 0.238,-0.0183 0.1614,-0.0268 -0.0776,-0.009 0.1892,0.0942 0.1649,0.0714"
           style="fill:#000000;fill-opacity:1;fill-rule:nonzero;stroke:none"
           id="path128" /><path
           d="m 305.3084,677.3547 c 0.2629,-0.0425 0.4416,-0.29 0.3992,-0.5529 -0.0425,-0.2628 -0.29,-0.4415 -0.5529,-0.3991 -0.1447,0.0234 -0.1901,-0.0328 -0.4308,0.1324 -0.041,0.0282 -0.1001,0.0711 -0.1547,0.17 -0.1067,0.1938 0.01,0.5219 0.114,0.61 0.2301,0.194 0.2653,0.1219 0.3342,0.132 0.2155,0.0315 0.5342,0.0495 0.9588,0.0892 0.9079,0.085 2.1335,0.2384 3.2089,0.6161 0.2512,0.0883 0.5264,-0.0438 0.6147,-0.2951 0.0882,-0.2512 -0.0439,-0.5264 -0.2952,-0.6146 -1.2073,-0.4241 -2.4986,-0.5785 -3.4385,-0.6665 -0.4368,-0.0409 -0.7772,-0.0639 -0.9091,-0.0832 -0.0122,-0.002 -0.0195,-0.003 -0.0197,-0.003 -10e-4,-3e-4 0.0396,0.0118 0.0236,0.007 -0.0136,-0.005 0.1009,0.0474 0.0675,0.0293 -0.0276,-0.0149 0.1593,0.1348 0.1124,0.086 -0.038,-0.0396 0.1366,0.2691 0.1095,0.1842 -0.021,-0.0657 0.007,0.2854 0.0175,0.2142 0.0153,-0.1045 -0.1427,0.2811 -0.1023,0.2318 0.0375,-0.0458 -0.1213,0.1057 -0.096,0.0883 0.033,-0.0226 -0.0848,0.0454 -0.0695,0.0388 0.0428,-0.0187 -0.0351,0.0123 -0.0133,0.008 0.0257,-0.006 0.0674,-0.0132 0.1217,-0.0219"
           style="fill:#000000;fill-opacity:1;fill-rule:nonzero;stroke:none"
           id="path130" /><path
           d="m 313.7303,676.9075 c -0.2616,0.0494 -0.4337,0.3016 -0.3843,0.5632 0.0494,0.2617 0.3015,0.4338 0.5632,0.3844 0.2609,-0.0493 1.0465,0.1148 1.7403,0.5009 0.3996,0.2224 0.77,0.5038 0.9806,0.7668 0.1046,0.1305 0.1387,0.2134 0.139,0.2159 0.004,0.0292 -0.02,0.1106 -0.0714,0.1661 -0.0238,0.0257 -0.0742,0.0343 -0.2653,0.026 -0.2046,-0.009 -0.4555,-0.0705 -0.6658,-0.1659 -0.2701,-0.1225 -0.5472,-0.4165 -0.7072,-0.7939 -0.1619,-0.3819 -0.2018,-0.8311 -0.0585,-1.2505 0.1465,-0.4288 0.4947,-0.8598 1.1493,-1.1944 0.7028,-0.3593 1.7575,-0.6002 3.2031,-0.612 0.2662,-0.002 0.4803,-0.2198 0.4782,-0.486 -0.002,-0.2663 -0.2198,-0.4804 -0.4861,-0.4782 -1.5534,0.0126 -2.7555,0.2684 -3.6341,0.7176 -0.8411,0.43 -1.391,1.0626 -1.6229,1.7413 -0.2275,0.6659 -0.1617,1.3609 0.0832,1.9386 0.2426,0.5722 0.6595,1.0521 1.1968,1.2957 0.3223,0.1462 0.6744,0.236 1.0222,0.2511 0.3465,0.015 0.7315,-0.0283 1.0149,-0.3345 0.2197,-0.2375 0.3669,-0.5698 0.3204,-0.9408 -0.038,-0.3031 -0.1958,-0.515 -0.3432,-0.6989 -0.3285,-0.4102 -0.7864,-0.7406 -1.2643,-1.0066 -0.8378,-0.4662 -1.6955,-0.7366 -2.3881,-0.6059"
           style="fill:#000000;fill-opacity:1;fill-rule:nonzero;stroke:none"
           id="path132" /><path
           d="m 412.5728,591.5552 c -0.1577,-0.2146 -0.4595,-0.2605 -0.674,-0.1028 -0.2145,0.1578 -0.2605,0.4596 -0.1028,0.6741 0.008,0.0113 -0.002,-0.0871 -0.0177,-0.0596 -0.0267,0.0473 -0.1421,0.1658 -0.3737,0.2761 -0.5666,0.2698 -1.6561,0.4 -2.6402,0.3381 -0.6675,-0.0419 -1.235,-0.2233 -1.4877,-0.439 -0.0545,-0.0465 -0.0913,-0.138 -0.0683,-0.3174 0.0341,-0.2657 0.244,-0.6673 0.6712,-1.082 0.4509,-0.4377 1.2909,-0.811 2.1171,-1.2609 0.5955,-0.3242 1.1589,-0.6619 1.6549,-0.9763 0.7739,-0.4907 1.3075,-0.9927 1.562,-1.5187 0.1007,-0.2082 0.158,-0.4474 0.1194,-0.6896 -0.0388,-0.2433 -0.1765,-0.4618 -0.3521,-0.6192 -0.8119,-0.7279 -2.278,-0.9088 -3.5813,-0.8584 -0.6368,0.0246 -1.2205,0.1097 -1.6713,0.395 -0.2271,0.1437 -0.4409,0.3775 -0.494,0.6869 -0.0532,0.3105 0.065,0.6162 0.2517,0.8717 0.157,0.215 0.4587,0.262 0.6737,0.1049 0.215,-0.1571 0.262,-0.4587 0.1049,-0.6737 -0.0875,-0.1198 -0.0833,-0.12 -0.0799,-0.1399 0.004,-0.0232 -0.0148,0.0118 0.0593,-0.0351 0.1865,-0.118 0.6481,-0.2252 1.1928,-0.2463 1.1353,-0.0439 2.5013,0.2551 2.9004,0.6129 0.0457,0.041 0.0431,0.0505 0.0435,0.053 8e-4,0.005 0.003,0.0392 -0.0351,0.1178 -0.1267,0.2618 -0.534,0.6955 -1.2103,1.1243 -0.4805,0.3046 -1.0267,0.6318 -1.5997,0.9438 -0.7841,0.4269 -1.6865,0.7935 -2.3276,1.4159 -0.5362,0.5205 -0.8831,1.0814 -0.956,1.6514 -0.0508,0.3965 0.0413,0.8683 0.3988,1.1734 0.5143,0.439 1.2558,0.6178 2.0531,0.6679 1.107,0.0696 2.2815,-0.0328 3.1153,-0.4299 0.3532,-0.1682 0.6342,-0.3812 0.7987,-0.6725 0.1657,-0.2933 0.159,-0.7085 -0.0451,-0.9859"
           style="fill:#000000;fill-opacity:1;fill-rule:nonzero;stroke:none"
           id="path134" /><path
           d="m 418.9947,590.9211 c 0.2468,-0.0998 0.366,-0.3808 0.2662,-0.6277 -0.0999,-0.2469 -0.3809,-0.366 -0.6278,-0.2662 -0.1018,0.0412 -0.4184,-8e-4 -0.7639,-0.2167 -0.3601,-0.2248 -0.7071,-0.5811 -0.9049,-0.9523 -0.1274,-0.2391 -0.1642,-0.5315 -0.136,-0.7429 0.0209,-0.1558 0.044,-0.18 0.0487,-0.1836 0.0595,-0.0455 0.417,-0.0984 0.765,-0.0287 0.172,0.0344 0.3674,0.1689 0.5422,0.386 0.1801,0.2238 0.3252,0.5145 0.4098,0.7904 0.0479,0.1563 0.0283,0.3963 0.004,0.6542 -0.0139,0.1458 -0.0509,0.2849 -0.0874,0.3918 -0.0174,0.0508 -0.0339,0.0924 -0.0468,0.1232 -0.012,0.0285 -0.004,-0.0959 -0.0542,0.1522 l 0.945,0.1918 c 0.0116,-0.0569 0.1198,-0.435 0.4894,-1.0425 0.3565,-0.5861 0.862,-1.2568 1.3956,-1.8067 0.5459,-0.5627 1.1724,-0.8783 1.6195,-0.9704 0.1882,-0.0387 0.2581,-0.0108 0.3115,0.029 0.0591,0.044 0.1381,0.1578 0.1986,0.3591 0.1337,0.4447 0.1461,1.1583 0.1216,1.9205 -0.0247,0.7713 -0.0845,1.5588 -0.0449,2.2379 0.0193,0.3311 0.0577,0.6364 0.1751,0.9154 0.1189,0.2824 0.3966,0.5765 0.7612,0.6161 0.2647,0.0288 0.5026,-0.1625 0.5314,-0.4272 0.0288,-0.2647 -0.1625,-0.5027 -0.4272,-0.5314 -0.0291,-0.003 0.0594,0.054 0.0234,-0.0315 -0.0453,-0.1077 -0.0853,-0.3235 -0.1012,-0.5975 -0.0341,-0.5843 0.0206,-1.3592 0.046,-2.1508 0.0255,-0.7924 0.0356,-1.5722 -0.162,-2.2291 -0.0977,-0.3251 -0.2579,-0.6404 -0.5461,-0.855 -0.2921,-0.2174 -0.6942,-0.2798 -1.0819,-0.2 -0.6709,0.1382 -1.4412,0.5468 -2.1171,1.2434 -0.593,0.6112 -1.1313,1.3259 -1.5274,1.9771 -0.4192,0.6892 -0.568,1.1421 -0.6105,1.3519 -0.053,0.261 0.1157,0.5155 0.3767,0.5684 0.2609,0.0529 0.5153,-0.1157 0.5683,-0.3766 0.0126,-0.0623 -0.0252,0.0839 -0.022,0.0756 0.004,-0.009 0.1806,-0.3762 0.2253,-0.8428 0.0237,-0.2472 0.0842,-0.6185 -0.0416,-1.0287 -0.118,-0.3852 -0.3092,-0.7754 -0.5806,-1.1125 -0.2724,-0.3384 -0.6395,-0.6338 -1.104,-0.7268 -0.4924,-0.0986 -1.0697,-0.1517 -1.5403,0.2084 -0.2923,0.2237 -0.3837,0.5614 -0.4184,0.8217 -0.0547,0.409 0.006,0.8831 0.2407,1.324 0.2903,0.5451 0.742,1.0026 1.245,1.3168 0.4971,0.3105 1.0818,0.517 1.6364,0.2927"
           style="fill:#000000;fill-opacity:1;fill-rule:nonzero;stroke:none"
           id="path136" /><path
           d="m 427.7503,592.3065 c 0.1106,-0.2423 0.004,-0.5283 -0.2384,-0.6389 -0.2422,-0.1105 -0.5282,-0.004 -0.6388,0.2384 -0.008,0.0164 0.0847,-0.1255 0.0517,-0.0837 -0.0158,0.02 0.1018,-0.097 0.0694,-0.0705 -0.032,0.0262 0.194,-0.0992 0.1348,-0.0772 -0.0577,0.0214 0.2758,-0.0223 0.2027,-0.0281 -0.0685,-0.005 0.237,0.0813 0.1853,0.0539 -0.047,-0.0249 0.1369,0.1071 0.1098,0.0804 -0.0479,-0.0471 0.101,0.145 0.0858,0.1157 -0.0239,-0.0461 0.0372,0.1017 0.0333,0.0863 -0.009,-0.0346 0.003,0.0149 10e-4,-0.0192 -0.005,-0.098 -0.002,-0.2819 0.0108,-0.5125 0.0285,-0.4924 0.0993,-1.1514 0.2259,-1.8205 0.1266,-0.6696 0.306,-1.3191 0.5363,-1.7611 0.1079,-0.2071 0.2231,-0.3523 0.3119,-0.4199 0.0771,-0.0587 0.1066,-0.0642 0.1732,-0.0502 0.2606,0.0549 0.5163,-0.1118 0.5712,-0.3723 0.0549,-0.2606 -0.1118,-0.5163 -0.3723,-0.5713 -0.3437,-0.0724 -0.7017,0.0327 -0.9564,0.2267 -0.2523,0.1922 -0.4327,0.4534 -0.5827,0.7414 -0.305,0.5853 -0.4921,1.305 -0.6287,2.0275 -0.1358,0.7178 -0.2101,1.4102 -0.2411,1.9439 -0.0146,0.2526 -0.0195,0.4579 -0.0111,0.6189 0.004,0.0778 -0.004,0.1341 0.0468,0.2684 0.0149,0.0397 0.0346,0.0945 0.1037,0.1691 0.1195,0.1291 0.5073,0.1695 0.6544,0.0588 0.1243,-0.0936 0.1411,-0.1598 0.1613,-0.204"
           style="fill:#000000;fill-opacity:1;fill-rule:nonzero;stroke:none"
           id="path138" /><path
           d="m 431.8154,591.5847 c -0.26,-0.0576 -0.5174,0.1066 -0.5749,0.3666 -0.0576,0.26 0.1066,0.5174 0.3666,0.5749 0.228,0.0504 0.4601,-0.115 0.527,-0.2161 0.0587,-0.0885 0.0705,-0.1454 0.0824,-0.1926 0.0223,-0.0889 0.0293,-0.1626 0.0374,-0.2471 0.0166,-0.1739 0.0286,-0.3886 0.0507,-0.6404 0.0464,-0.5259 0.1322,-1.1759 0.3449,-1.7968 0.1707,-0.4986 0.4443,-0.978 0.7802,-1.3434 0.354,-0.385 0.9625,-0.5832 1.5358,-0.637 0.4764,-0.0446 0.9555,0.1325 1.2746,0.3664 0.3192,0.2338 0.3954,0.6256 0.3329,0.9241 -0.0339,0.1619 -0.1657,0.3099 -0.5045,0.486 -0.3704,0.1925 -0.9161,0.3727 -1.5684,0.5969 -0.2518,0.0865 -0.3858,0.3609 -0.2992,0.6127 0.0865,0.2518 0.3608,0.3858 0.6126,0.2992 0.6483,-0.2228 1.2228,-0.4054 1.6997,-0.6532 0.4677,-0.2431 0.8919,-0.6098 1.0037,-1.1441 0.1269,-0.6067 -0.04,-1.4109 -0.7068,-1.8995 -0.4902,-0.3591 -1.1785,-0.6194 -1.9346,-0.5485 -0.7227,0.0677 -1.5657,0.3025 -2.1557,0.9443 -0.4396,0.4783 -0.7714,1.0671 -0.9826,1.6836 -0.2521,0.736 -0.3435,1.4611 -0.3931,2.0247 -0.0235,0.267 -0.0363,0.4888 -0.0502,0.6333 -0.006,0.0652 -0.011,0.0973 -0.0126,0.1037 -10e-4,0.004 0.0144,-0.0421 0.009,-0.0271 -0.005,0.0124 0.0372,-0.0746 0.0244,-0.0519 -0.0102,0.0181 0.0665,-0.0906 0.0453,-0.0653 -0.0338,0.0403 0.255,-0.1625 0.1715,-0.1269 -0.0865,0.037 0.3717,-0.007 0.2842,-0.0265"
           style="fill:#000000;fill-opacity:1;fill-rule:nonzero;stroke:none"
           id="path140" /><path
           d="m 429.0281,595.9478 c 0.1224,-0.2365 0.0299,-0.5274 -0.2066,-0.6498 -0.2365,-0.1224 -0.5274,-0.0299 -0.6498,0.2066 -0.0113,0.0219 -0.1577,0.1784 -0.2468,0.4625 -0.0483,0.1542 -0.0788,0.4089 0.0845,0.6332 0.1632,0.2243 0.4154,0.2888 0.6375,0.3018 0.2658,0.0157 0.494,-0.1871 0.5097,-0.4529 0.0156,-0.2659 -0.1872,-0.494 -0.453,-0.5097 -0.0362,-0.002 -0.0122,0.006 -0.0292,-10e-4 -0.023,-0.009 0.1554,0.1504 0.1147,0.0944 -0.0416,-0.057 0.0622,0.2121 0.0604,0.1688 -10e-4,-0.0383 -0.004,0.0541 -0.004,0.0538 0.008,-0.0265 0.0897,-0.1272 0.1831,-0.3077"
           style="fill:#000000;fill-opacity:1;fill-rule:nonzero;stroke:none"
           id="path142" /><path
           d="m 280.7744,497.9421 c -0.0344,0.264 0.1517,0.506 0.4158,0.5404 0.264,0.0344 0.506,-0.1518 0.5404,-0.4158 0.008,-0.0588 -0.011,0.0544 -0.01,0.0497 0.0862,-0.2751 0.6074,-1.5407 1.1233,-2.8725 0.2583,-0.6667 0.5057,-1.3209 0.6948,-1.8696 0.0911,-0.2644 0.1666,-0.4978 0.2204,-0.6955 0.0516,-0.1896 0.1198,-0.3016 0.0683,-0.5705 -0.0501,-0.2616 -0.3026,-0.433 -0.5642,-0.3829 -0.2615,0.05 -0.433,0.3026 -0.3829,0.5641 0.009,0.0487 -0.006,-0.0713 -0.006,-0.0681 -0.0158,0.2309 -0.5136,1.6078 -1.0292,2.9303 -0.2568,0.6588 -0.5089,1.2911 -0.7096,1.7992 -0.096,0.2428 -0.1773,0.4498 -0.2388,0.6107 -0.0574,0.1505 -0.0958,0.173 -0.1229,0.3805"
           style="fill:#000000;fill-opacity:1;fill-rule:nonzero;stroke:none"
           id="path144" /><path
           d="m 279.3548,499.8897 c 0.2615,-0.0504 0.4327,-0.3031 0.3823,-0.5646 -0.0503,-0.2615 -0.3031,-0.4327 -0.5646,-0.3823 -0.388,0.0747 -0.6717,0.1389 -0.9156,0.3395 -0.1293,0.1063 -0.2651,0.3146 -0.2469,0.5459 0.0176,0.2243 0.1395,0.3675 0.2442,0.463 0.3977,0.3625 1.0069,0.5221 1.7912,0.7414 0.8436,0.2359 1.8127,0.4812 2.7206,0.6116 0.8606,0.1235 1.605,0.1315 2.1663,-0.0682 0.196,-0.0698 0.3722,-0.2034 0.48,-0.3782 0.107,-0.1735 0.1428,-0.3751 0.1244,-0.559 -0.0367,-0.3655 -0.2476,-0.6618 -0.5234,-0.937 -0.7409,-0.7393 -1.9537,-1.1709 -2.6688,-1.566 -0.1219,-0.0673 -0.2192,-0.1263 -0.2816,-0.1707 -0.0284,-0.0203 -0.0473,-0.0361 -0.0542,-0.0427 -0.004,-0.004 0.0449,0.0717 0.0253,0.037 -0.0212,-0.0375 0.0568,0.2008 0.0486,0.1437 -0.008,-0.0581 -0.0267,0.2289 -0.0115,0.1748 0.0148,-0.0526 -0.0829,0.158 -0.0605,0.1268 0.0213,-0.0297 -0.0729,0.0762 -0.0571,0.0627 0.0283,-0.0242 -0.0395,0.0275 -0.0381,0.0268 0.004,-0.002 0.0199,-0.008 0.0443,-0.0157 0.1147,-0.0346 0.3446,-0.0713 0.6398,-0.0888 0.7388,-0.044 1.7437,-0.0116 2.715,8e-4 0.7387,0.009 1.4274,0.0312 1.992,-7e-4 0.3164,-0.0179 0.5843,-0.0628 0.8182,-0.1679 0.2344,-0.1052 0.4768,-0.3237 0.5208,-0.6287 0.0468,-0.3249 -0.106,-0.5552 -0.2536,-0.7426 -0.1483,-0.1881 -0.3342,-0.3597 -0.5436,-0.5337 -0.4278,-0.3555 -0.9455,-0.7067 -1.43,-1.0384 -0.4741,-0.3246 -0.8972,-0.6175 -1.0902,-0.8004 -0.0406,-0.0385 -0.0592,-0.0614 -0.061,-0.0642 -0.003,-0.005 0.0362,0.0881 0.0247,0.0536 -0.013,-0.0388 -0.002,0.2695 0.0122,0.1866 0.0152,-0.0862 -0.1773,0.2796 -0.1217,0.2271 0.0394,-0.0372 -0.1278,0.0798 -0.1019,0.0685 0.0344,-0.0151 -0.0476,0.0152 -0.0446,0.0148 0.007,-8e-4 0.0275,-0.002 0.0594,-0.002 0.2662,0.004 0.4852,-0.2089 0.489,-0.4751 0.004,-0.2663 -0.2089,-0.4852 -0.4752,-0.4891 -0.1186,-0.002 -0.2306,0.002 -0.3628,0.0476 -0.1412,0.0485 -0.3507,0.2068 -0.3919,0.4411 -0.0756,0.4297 0.1656,0.5538 0.3105,0.691 0.2969,0.2814 0.7318,0.5696 1.2088,0.8962 0.4828,0.3306 0.9825,0.672 1.3584,0.9843 0.1792,0.1489 0.3217,0.2865 0.4024,0.3889 0.0365,0.0462 0.0559,0.0811 0.0602,0.0914 0.002,0.004 0.005,-0.141 -0.004,-0.0832 -0.007,0.0487 0.0711,-0.136 0.0525,-0.1159 -0.0149,0.0161 0.0137,-0.01 -0.0138,0.002 -0.0699,0.0314 -0.2356,0.0711 -0.4776,0.0848 -0.4998,0.0283 -1.1797,0.009 -1.9254,-7e-4 -0.9618,-0.0123 -1.9752,-0.0473 -2.7844,8e-4 -0.3425,0.0204 -0.626,0.0572 -0.8616,0.1284 -0.1163,0.0351 -0.229,0.0721 -0.3538,0.1789 -0.067,0.0572 -0.1456,0.146 -0.184,0.2823 -0.0397,0.1411 -0.01,0.3081 0.0515,0.4169 0.1755,0.3111 0.4066,0.3931 0.6837,0.5462 0.8019,0.443 1.958,0.9097 2.4541,1.4046 0.1822,0.1818 0.2432,0.333 0.245,0.3506 0,2e-4 0.028,-0.0656 0.0143,-0.0434 -0.0137,0.0222 0.0337,-0.0299 0.0174,-0.0241 -0.2872,0.1022 -0.9394,0.1322 -1.7058,0.0222 -0.8371,-0.1202 -1.7755,-0.3557 -2.598,-0.5857 -0.7444,-0.2082 -1.3211,-0.4523 -1.4013,-0.5254 -0.002,-0.002 0.0375,0.0544 0.0224,0.0299 -0.0172,-0.0279 0.0503,0.2104 0.0451,0.1441 -0.005,-0.0685 -0.0661,0.2446 -0.0394,0.1939 0.025,-0.0472 -0.0742,0.0902 -0.0625,0.0805 0.0179,-0.0147 0.1623,-0.0751 0.4854,-0.1373"
           style="fill:#000000;fill-opacity:1;fill-rule:nonzero;stroke:none"
           id="path146" /><path
           d="m 289.0952,497.5653 c -0.1365,0.2287 -0.0617,0.5247 0.1669,0.6611 0.2287,0.1365 0.5247,0.0617 0.6611,-0.1669 0.2546,-0.4267 0.0627,-0.5728 0.0303,-0.7963 -0.0332,-0.2298 -0.0579,-0.4927 -0.0193,-0.7747 0.1007,-0.7361 0.9694,-1.7922 1.9339,-2.2434 0.2655,-0.1242 0.599,-0.1623 0.9419,-0.147 0.3587,0.016 0.6816,0.0756 0.927,0.2048 0.365,0.192 0.6544,0.7518 0.7263,1.2714 0.0422,0.3056 0.0233,0.5599 -0.0728,0.749 -0.0597,0.1175 -0.2528,0.277 -0.5536,0.4086 -0.3149,0.1377 -0.7084,0.2411 -1.1002,0.3197 -0.913,0.1831 -1.9057,0.0545 -2.5255,-0.1444 -0.1422,-0.0456 -0.2566,-0.0934 -0.3287,-0.1322 -0.0328,-0.0176 -0.0538,-0.0321 -0.0593,-0.0365 -0.002,-0.002 0.0745,0.111 0.0452,0.0595 -0.0164,-0.0289 0.0524,0.1837 0.0437,0.1274 -0.007,-0.0436 -0.0138,0.194 -0.004,0.1442 0.0153,-0.0746 -0.1247,0.2239 -0.0884,0.1817 0.0341,-0.0395 -0.1036,0.0822 -0.084,0.071 0.0288,-0.0166 -0.0277,0.0117 -0.004,0.007 0.0283,-0.006 0.0772,-0.0135 0.1429,-0.0181 0.2656,-0.0189 0.4656,-0.2496 0.4467,-0.5152 -0.0189,-0.2656 -0.2495,-0.4656 -0.5151,-0.4467 -0.2004,0.0143 -0.3678,0.0323 -0.5504,0.1371 -0.1998,0.1146 -0.3547,0.5624 -0.2259,0.7888 0.2167,0.3811 0.5209,0.4335 0.8864,0.5507 0.776,0.249 1.8889,0.3965 3.0097,0.1717 0.4309,-0.0864 0.883,-0.2006 1.2971,-0.3818 0.4122,-0.1803 0.8111,-0.4307 1.0268,-0.8552 0.2191,-0.4314 0.2262,-0.8987 0.1683,-1.3179 -0.1029,-0.7434 -0.462,-1.5873 -1.2325,-1.9927 -0.4276,-0.225 -0.8929,-0.2951 -1.333,-0.3148 -0.4422,-0.0197 -0.9322,0.0212 -1.3935,0.237 -1.2497,0.5846 -2.3128,1.7592 -2.4807,2.986 -0.0565,0.413 -0.0186,0.7744 0.0204,1.0436 0.0183,0.1267 0.0358,0.229 0.0422,0.2888 0.003,0.0257 0.003,0.0177 0.003,0.0283 -4e-4,0.008 0.0126,-0.0698 0.007,-0.0459 -0.006,0.0262 0.0702,-0.1512 0.044,-0.1072"
           style="fill:#000000;fill-opacity:1;fill-rule:nonzero;stroke:none"
           id="path148" /><path
           d="m 293.1371,499.6346 c 0.1331,0.2306 0.4279,0.3097 0.6586,0.1766 0.2306,-0.133 0.3097,-0.4279 0.1766,-0.6585 -0.0415,-0.072 -0.0559,-0.1891 0.0166,-0.3947 0.0794,-0.2248 0.2557,-0.5072 0.5078,-0.8016 0.528,-0.6165 1.3337,-1.2469 2.2089,-1.7249 0.8686,-0.4745 1.7764,-0.7743 2.4714,-0.7567 0.3285,0.008 0.5942,0.0868 0.7898,0.2279 0.1948,0.1406 0.3514,0.361 0.4437,0.7172 0.0669,0.2577 0.33,0.4125 0.5877,0.3457 0.2578,-0.0668 0.4126,-0.33 0.3458,-0.5877 -0.1389,-0.5355 -0.4243,-0.9767 -0.813,-1.2571 -0.3857,-0.2784 -0.8547,-0.398 -1.3296,-0.41 -0.9603,-0.0243 -1.9913,0.3464 -2.958,0.8744 -0.9697,0.5296 -1.8532,1.2132 -2.4791,1.944 -0.3055,0.3566 -0.5488,0.7227 -0.6847,1.108 -0.1349,0.3822 -0.1571,0.8256 0.0575,1.1974"
           style="fill:#000000;fill-opacity:1;fill-rule:nonzero;stroke:none"
           id="path150" /><path
           d="m 301.328,501.671 c 0.2503,-0.0909 0.3796,-0.3674 0.2887,-0.6177 -0.0908,-0.2503 -0.3673,-0.3796 -0.6176,-0.2888 -0.0536,0.0194 -0.1047,0.0212 -0.217,-0.0341 -0.1265,-0.0622 -0.2951,-0.1986 -0.4754,-0.401 -0.3847,-0.4318 -0.792,-1.1064 -1.1886,-1.8894 -0.8174,-1.6137 -1.5311,-3.5371 -2.0527,-4.9458 -0.0924,-0.2497 -0.3698,-0.3772 -0.6195,-0.2848 -0.2497,0.0925 -0.3772,0.3699 -0.2848,0.6196 0.5235,1.414 1.2442,3.3635 2.0968,5.0467 0.4171,0.8234 0.8486,1.5562 1.3288,2.0952 0.2341,0.2628 0.4817,0.4831 0.7696,0.6247 0.2886,0.142 0.6467,0.1933 0.9717,0.0754"
           style="fill:#000000;fill-opacity:1;fill-rule:nonzero;stroke:none"
           id="path152" /><path
           d="m 150.5545,584.7246 c 0.2555,-0.075 0.4017,-0.343 0.3266,-0.5985 -0.0751,-0.2555 -0.3431,-0.4017 -0.5985,-0.3266 -0.6662,0.1958 -1.5685,0.3413 -2.6589,0.4235 -1.1308,0.0853 -2.4456,0.1014 -3.9116,0.0374 -1.6865,-0.0735 -3.5446,-0.2328 -5.491,-0.5694 -1.5537,-0.2687 -3.16,-0.6673 -4.821,-1.1826 -1.7214,-0.5342 -3.4866,-1.1818 -5.2089,-1.9662 -1.7719,-0.8071 -3.4697,-1.7668 -4.9553,-2.7678 -1.4212,-0.9577 -2.6176,-1.9206 -3.4095,-2.9208 -0.8839,-1.1165 -1.1538,-2.368 -0.9989,-3.7233 0.1506,-1.3173 0.7211,-2.7836 1.6267,-4.2679 0.9275,-1.5203 2.1948,-3.0466 3.7231,-4.4762 1.7171,-1.6062 3.7328,-3.0789 6.0313,-4.3155 2.3359,-1.2567 4.9724,-2.2585 7.8262,-2.955 4.0457,-0.9873 8.5493,-1.2008 13.0928,-1.1383 2.6223,0.0361 5.2364,0.127 7.7322,0.3816 2.751,0.2805 5.3455,0.7397 7.7047,1.3734 2.3189,0.6228 4.3966,1.4106 6.1412,2.3598 1.498,0.8151 2.7356,1.7838 3.696,2.8717 1.2175,1.3792 2.0379,2.9547 2.2561,4.6773 0.2304,1.8188 -0.078,3.7968 -1.3393,5.6924 -1.1091,1.6668 -2.7995,3.2981 -5.1368,4.546 -0.625,0.3337 -1.3494,0.6153 -2.1386,0.9045 -0.651,0.2385 -1.2878,0.4863 -1.9234,0.6877 -1.5534,0.4921 -3.2503,0.9433 -5.0759,1.356 -2.6093,0.5898 -5.3897,1.0229 -8.2158,1.4101 -0.2638,0.0361 -0.4484,0.2793 -0.4123,0.5431 0.0362,0.2638 0.2793,0.4484 0.5432,0.4122 2.8392,-0.3889 5.6455,-0.8253 8.2975,-1.4249 1.8482,-0.4178 3.5709,-0.8756 5.1546,-1.3773 0.6727,-0.2131 1.3225,-0.4665 1.9639,-0.7015 0.8025,-0.2941 1.5666,-0.5885 2.261,-0.9592 2.4764,-1.3223 4.2889,-3.0644 5.4854,-4.8625 1.3938,-2.0948 1.7479,-4.3373 1.4932,-6.3478 -0.2463,-1.9443 -1.1718,-3.701 -2.4899,-5.1942 -1.0425,-1.1809 -2.3726,-2.218 -3.9581,-3.0806 -1.8271,-0.9942 -3.9737,-1.8054 -6.3519,-2.4441 -2.4162,-0.649 -5.0602,-1.1162 -7.8569,-1.4014 -2.5386,-0.2589 -5.1795,-0.3502 -7.8169,-0.3865 -4.5866,-0.0631 -9.1657,0.1483 -13.3346,1.1658 -2.9286,0.7147 -5.6414,1.7442 -8.0545,3.0425 -2.3728,1.2767 -4.4562,2.7983 -6.2331,4.4605 -3.1505,2.947 -5.3026,6.3072 -5.6491,9.3388 -0.1776,1.553 0.1559,3.1115 1.2009,4.4314 0.8907,1.125 2.1616,2.1347 3.6267,3.1219 1.5307,1.0314 3.2715,2.0154 5.0944,2.8456 1.7657,0.8043 3.5683,1.4652 5.3229,2.0096 1.6953,0.5261 3.3418,0.9351 4.9424,1.2119 1.9969,0.3453 3.8961,0.5077 5.6133,0.5826 1.499,0.0654 2.8501,0.0494 4.026,-0.0392 1.1381,-0.0858 2.0982,-0.2365 2.8584,-0.46"
           style="fill:#000000;fill-opacity:1;fill-rule:nonzero;stroke:none"
           id="path154" /><path
           d="m 309.7565,687.6926 c -0.0285,-0.2647 -0.2662,-0.4563 -0.531,-0.4278 -0.2647,0.0285 -0.4563,0.2662 -0.4278,0.5309 0.0839,0.7808 0.1212,1.5678 -0.2086,2.3823 -0.2625,0.6483 -0.4978,1.1827 -1.3313,1.5044 -0.503,0.1941 -1.2731,0.3206 -2.414,0.3291 -0.7867,0.006 -1.682,0.007 -2.6621,-0.0719 -1.014,-0.0819 -2.1324,-0.2852 -3.3213,-0.5178 -1.1434,-0.2236 -2.3395,-0.487 -3.6039,-0.8333 -2.2296,-0.6106 -4.6789,-1.4412 -7.264,-2.5211 -1.5877,-0.6633 -3.2169,-1.4309 -4.8682,-2.2873 -0.494,-0.2562 -0.9891,-0.5008 -1.4769,-0.7643 -1.7547,-0.9475 -3.5311,-2.0073 -5.2193,-3.1845 -1.6565,-1.1553 -3.1966,-2.4708 -4.5807,-3.8134 -2.2073,-2.1411 -3.8653,-4.3984 -4.6197,-6.5296 -0.4389,-1.2398 -0.5941,-2.4444 -0.4082,-3.5727 0.2478,-1.5043 1.1443,-2.9483 2.6587,-4.2151 1.6102,-1.347 3.9727,-2.4245 6.7535,-3.316 0.7524,-0.2413 1.5585,-0.4652 2.4146,-0.6871 0.6736,-0.1745 1.3637,-0.3445 2.0816,-0.4978 3.2596,-0.696 6.8792,-1.1685 10.6827,-1.4306 2.7636,-0.1904 5.6373,-0.2249 8.6249,-0.1909 1.1246,0.0128 2.2444,0.004 3.342,0.0226 0.9046,0.0157 1.7704,0.0808 2.5844,0.1454 3.9193,0.311 7.7562,0.6772 11.3007,1.238 2.5693,0.4065 4.9825,0.8603 7.1912,1.4091 2.885,0.7169 5.4116,1.5145 7.4253,2.5736 1.9952,1.0494 3.5003,2.3447 4.3056,3.8297 0.7731,1.4254 0.6915,3.3033 0.1698,5.2052 -0.5303,1.9337 -1.5356,3.9372 -3.0825,5.7688 -1.5689,1.8576 -3.5902,3.5826 -6.1311,4.9159 -1.3412,0.7039 -2.9017,1.1984 -4.5281,1.6694 -5.5294,1.6012 -12.1337,1.9752 -18.8406,1.9462 -0.2663,-10e-4 -0.4831,0.2138 -0.4843,0.4801 -10e-4,0.2662 0.2138,0.483 0.4801,0.4842 6.7511,0.0292 13.4337,-0.3397 19.113,-1.9843 1.6454,-0.4765 3.2652,-0.9846 4.708,-1.7417 2.6577,-1.3947 4.7776,-3.2034 6.4197,-5.1476 1.6381,-1.9396 2.7087,-4.0685 3.2757,-6.1359 0.5587,-2.0368 0.6935,-4.1764 -0.252,-5.92 -0.9264,-1.7083 -2.5928,-3.1128 -4.7044,-4.2235 -2.124,-1.1171 -4.7182,-1.9295 -7.6417,-2.6559 -2.246,-0.5581 -4.6852,-1.0163 -7.2731,-1.4258 -3.5845,-0.5671 -7.4441,-0.9349 -11.3751,-1.2468 -0.8184,-0.065 -1.7051,-0.132 -2.6438,-0.1483 -1.1129,-0.0193 -2.2345,-0.01 -3.3478,-0.0226 -3.0032,-0.0342 -5.9023,2e-4 -8.7021,0.1931 -3.8421,0.2647 -7.5043,0.7421 -10.8178,1.4496 -0.7364,0.1572 -1.4404,0.3307 -2.1222,0.5074 -0.8671,0.2247 -1.6902,0.4532 -2.4671,0.7022 -2.8495,0.9136 -5.317,2.0216 -7.0779,3.4947 -1.651,1.3812 -2.7005,3.0326 -2.9914,4.798 -0.2169,1.3166 -0.031,2.6906 0.4507,4.0512 0.8264,2.3347 2.5769,4.6879 4.8573,6.8999 1.4154,1.3729 2.993,2.7215 4.7006,3.9122 1.725,1.203 3.5321,2.2806 5.3126,3.2421 0.5065,0.2735 1.0068,0.5206 1.4912,0.7718 1.6726,0.8675 3.3255,1.6464 4.9404,2.321 2.6231,1.0958 5.1106,1.9397 7.381,2.5615 1.2932,0.3541 2.5138,0.6227 3.6735,0.8496 1.1993,0.2346 2.3485,0.4453 3.4287,0.5326 1.0266,0.083 1.9538,0.0809 2.747,0.0749 1.2127,-0.009 2.0942,-0.139 2.754,-0.3937 1.1458,-0.4423 1.5996,-1.3549 1.8779,-2.0421 0.4189,-1.0345 0.3624,-2.0209 0.2736,-2.8473"
           style="fill:#000000;fill-opacity:1;fill-rule:nonzero;stroke:none"
           id="path156" /><path
           d="m 437.3352,600.1497 c 0.2317,-0.1312 0.3132,-0.4254 0.182,-0.6571 -0.1312,-0.2317 -0.4254,-0.3132 -0.6571,-0.182 -0.6554,0.3711 -1.5426,0.597 -2.9857,0.7069 -1.3775,0.1048 -3.2093,0.1123 -5.5571,0.0946 -1.6831,-0.0127 -3.5587,0.0418 -5.563,-0.0224 -2.0853,-0.0667 -4.3067,-0.2839 -6.5255,-0.5226 -2.1145,-0.2276 -4.2111,-0.477 -6.3056,-0.8373 -1.5204,-0.2615 -3.0354,-0.5645 -4.5905,-0.9527 -1.6262,-0.4059 -3.3085,-0.8851 -5.0553,-1.4743 -1.5613,-0.5266 -3.0402,-1.1831 -4.4128,-1.8716 -0.5378,-0.2697 -1.0622,-0.5467 -1.5635,-0.826 -1.2196,-0.6796 -2.2396,-1.3922 -3.0119,-2.1345 -0.7175,-0.6898 -1.1741,-1.4335 -1.4281,-2.2036 -0.4504,-1.3656 -0.3621,-2.8388 0.3762,-4.2508 0.6043,-1.1558 1.6926,-2.2823 3.1342,-3.3354 1.4928,-1.0906 3.3314,-2.1213 5.533,-2.9359 2.8273,-1.0461 6.3183,-1.62 10.2391,-2.0111 4.0915,-0.4082 8.5844,-0.4713 13.1138,-0.4777 4.509,-0.006 8.9458,-0.0394 12.9897,0.1913 1.657,0.0945 3.3259,0.2969 5.0347,0.549 3.0751,0.4537 5.8858,1.0086 8.2495,1.756 2.0715,0.6551 3.8607,1.5228 5.3152,2.5486 1.4218,1.0028 2.5234,2.1587 3.2512,3.3973 0.6074,1.0336 0.9154,2.1796 0.9356,3.3613 0.0209,1.2215 -0.1326,2.4607 -0.7198,3.666 -0.6328,1.2989 -1.8225,2.5595 -3.3138,3.7734 -2.5445,2.0714 -6.1503,3.8028 -10.1957,5.2687 -0.2504,0.0907 -0.3798,0.3672 -0.2891,0.6175 0.0907,0.2504 0.3672,0.3798 0.6176,0.2891 4.1062,-1.4879 7.7982,-3.2477 10.476,-5.4274 1.5536,-1.2647 2.8451,-2.6071 3.5719,-4.099 0.6711,-1.3775 0.8396,-2.7874 0.817,-4.1048 -0.0229,-1.3387 -0.3756,-2.6545 -1.0683,-3.8334 -1.6263,-2.7676 -4.8403,-5.0274 -9.1071,-6.3767 -2.4382,-0.771 -5.2935,-1.3323 -8.3995,-1.7905 -1.7259,-0.2547 -3.4234,-0.461 -5.1205,-0.5578 -4.0861,-0.2332 -8.5385,-0.1992 -13.046,-0.1928 -4.5399,0.006 -9.0602,0.0685 -13.2082,0.4824 -3.9615,0.3952 -7.5243,0.9734 -10.4779,2.0662 -2.2867,0.8461 -4.2046,1.9201 -5.7673,3.0616 -1.5226,1.1124 -2.7207,2.33 -3.4199,3.6673 -0.8525,1.6306 -0.9639,3.4031 -0.4374,4.9996 0.3033,0.9197 0.8536,1.8065 1.6757,2.5967 0.8516,0.8187 1.9382,1.5727 3.2107,2.2817 0.5143,0.2866 1.0508,0.5699 1.6006,0.8456 1.4021,0.7033 2.9215,1.3786 4.5369,1.9234 1.7743,0.5984 3.4821,1.0849 5.13,1.4962 1.583,0.3951 3.1224,0.7029 4.6606,0.9674 2.1258,0.3657 4.2429,0.6173 6.3658,0.8457 2.2269,0.2397 4.4699,0.4597 6.5978,0.5277 2.0383,0.0652 3.9262,0.0103 5.5866,0.0229 2.3556,0.0177 4.2049,0.0116 5.6376,-0.0974 1.5188,-0.1156 2.5673,-0.3648 3.3876,-0.8293"
           style="fill:#000000;fill-opacity:1;fill-rule:nonzero;stroke:none"
           id="path158" /><path
           d="m 301.978,512.1244 c 0.0913,-0.2501 -0.0373,-0.5269 -0.2875,-0.6183 -0.2501,-0.0913 -0.5269,0.0373 -0.6183,0.2875 -0.191,0.5229 -0.557,0.8871 -1.1681,1.1365 -0.3409,0.1391 -0.6886,0.2709 -1.1256,0.33 -0.6324,0.0857 -1.4081,0.1331 -2.4699,-0.0272 -0.9616,-0.1451 -2.1054,-0.4764 -3.3626,-0.8495 -1.6158,-0.4796 -3.4066,-1.1066 -5.322,-1.8351 -1.4475,-0.5505 -2.9663,-1.0986 -4.5132,-1.7449 -2.1739,-0.9083 -4.4168,-1.896 -6.529,-3.066 -2.0717,-1.1476 -3.9684,-2.5089 -5.6109,-3.9502 -0.459,-0.4029 -0.896,-0.826 -1.3175,-1.2487 -1.4141,-1.4182 -2.4359,-2.9123 -3.0895,-4.3438 -0.9372,-2.0528 -1.0483,-3.9401 -0.2208,-5.5485 0.4221,-0.8205 1.151,-1.597 2.0738,-2.3414 0.9814,-0.7918 2.1879,-1.5257 3.5431,-2.1706 1.3155,-0.6261 2.7669,-1.1755 4.3675,-1.5955 2.1708,-0.5696 4.571,-0.9543 7.2383,-1.0405 3.5474,-0.1146 7.5136,0.3217 11.5399,1.1647 0.7106,0.1488 1.4294,0.3482 2.1741,0.5473 0.8636,0.2309 1.7565,0.4648 2.6796,0.7166 1.608,0.4386 3.1628,0.9139 4.6132,1.4035 0.6249,0.2109 1.2223,0.4362 1.8008,0.6639 1.9736,0.7764 3.7781,1.5506 5.318,2.4219 1.4275,0.8076 2.6161,1.7081 3.5845,2.6963 2.0043,2.0452 3.107,4.5419 3.1393,6.9597 0.0288,2.1495 -0.8757,4.301 -2.7732,6.2017 -0.9825,0.9841 -2.2331,1.9127 -3.7486,2.7619 -1.5539,0.8708 -3.3853,1.6584 -5.493,2.3464 -0.2532,0.0826 -0.3914,0.3548 -0.3088,0.6079 0.0826,0.2531 0.3548,0.3914 0.6079,0.3088 2.1589,-0.7047 4.0478,-1.5155 5.6653,-2.4218 1.5813,-0.8862 2.9047,-1.8652 3.9597,-2.9219 2.0493,-2.0528 3.0873,-4.4745 3.0549,-6.8959 -0.036,-2.6928 -1.2587,-5.4216 -3.4148,-7.6217 -1.0379,-1.0591 -2.3017,-2.014 -3.7983,-2.8607 -1.6041,-0.9075 -3.447,-1.6959 -5.4398,-2.48 -0.5878,-0.2312 -1.2004,-0.4624 -1.8455,-0.6802 -1.4689,-0.4958 -3.0413,-0.9765 -4.6679,-1.4201 -0.9286,-0.2533 -1.8233,-0.4877 -2.6843,-0.7179 -0.7409,-0.1981 -1.4762,-0.4027 -2.2255,-0.5595 -4.0874,-0.8558 -8.1225,-1.3025 -11.7686,-1.1847 -2.7416,0.0886 -5.2158,0.4848 -7.452,1.0716 -1.6619,0.4361 -3.1707,1.0072 -4.5371,1.6574 -1.4124,0.6722 -2.6813,1.4414 -3.7342,2.2908 -0.9876,0.7968 -1.816,1.6599 -2.3258,2.6509 -0.9806,1.9059 -0.8198,4.1541 0.2011,6.39 0.7046,1.5434 1.7935,3.1296 3.2838,4.6242 0.4304,0.4316 0.8826,0.8698 1.3644,1.2926 1.6928,1.4856 3.6436,2.8858 5.7797,4.069 2.162,1.1976 4.4367,2.1981 6.6245,3.1122 1.5733,0.6574 3.1034,1.2093 4.5421,1.7565 1.9311,0.7345 3.7426,1.3692 5.3905,1.8582 1.2642,0.3752 2.4381,0.7194 3.4929,0.8786 1.1609,0.1753 2.0519,0.1229 2.7433,0.0293 0.5571,-0.0754 1,-0.2457 1.3605,-0.3928 0.81,-0.3305 1.4263,-0.9229 1.7096,-1.6985"
           style="fill:#000000;fill-opacity:1;fill-rule:nonzero;stroke:none"
           id="path160" /></g></g></g></svg>
